<?xml version="1.0" encoding="UTF-8" standalone="no"?>
<!DOCTYPE svg PUBLIC "-//W3C//DTD SVG 1.1//EN"
 "http://www.w3.org/Graphics/SVG/1.1/DTD/svg11.dtd">
<!-- Generated by graphviz version 2.40.1 (20161225.0304)
 -->
<!-- Title: dependencies Pages: 1 -->
<svg width="664pt" height="211pt"
 viewBox="0.00 0.00 664.00 211.00" xmlns="http://www.w3.org/2000/svg" xmlns:xlink="http://www.w3.org/1999/xlink">
<g id="graph0" class="graph" transform="scale(1 1) rotate(0) translate(4 207)">
<title>dependencies</title>
<polygon fill="#ffffff" stroke="transparent" points="-4,4 -4,-207 660,-207 660,4 -4,4"/>
<text text-anchor="start" x="307.0091" y="-42.4" font-family="sans-serif" font-weight="bold" font-size="14.00" fill="#000000">Legend</text>
<polygon fill="#ffffb3" stroke="transparent" points="94,-10 94,-30 114,-30 114,-10 94,-10"/>
<text text-anchor="start" x="117.629" y="-15.4" font-family="sans-serif" font-size="14.00" fill="#000000"> &#160;Declarations</text>
<polygon fill="#8dd3c7" stroke="transparent" points="207,-10 207,-30 227,-30 227,-10 207,-10"/>
<text text-anchor="start" x="230.7251" y="-15.4" font-family="sans-serif" font-size="14.00" fill="#000000"> &#160;Module</text>
<polygon fill="#80b1d3" stroke="transparent" points="293,-10 293,-30 313,-30 313,-10 293,-10"/>
<text text-anchor="start" x="316.7812" y="-15.4" font-family="sans-serif" font-size="14.00" fill="#000000"> &#160;Bootstrap</text>
<polygon fill="#fdb462" stroke="transparent" points="390,-10 390,-30 410,-30 410,-10 390,-10"/>
<text text-anchor="start" x="413.6732" y="-15.4" font-family="sans-serif" font-size="14.00" fill="#000000"> &#160;Providers</text>
<polygon fill="#fb8072" stroke="transparent" points="486,-10 486,-30 506,-30 506,-10 486,-10"/>
<text text-anchor="start" x="509.7258" y="-15.4" font-family="sans-serif" font-size="14.00" fill="#000000"> &#160;Exports</text>
<g id="clust1" class="cluster">
<title>cluster_UserModule</title>
<polygon fill="none" stroke="#000000" stroke-dasharray="1,5" points="8,-70 8,-195 648,-195 648,-70 8,-70"/>
</g>
<g id="clust2" class="cluster">
<title>cluster_UserModule_declarations</title>
<polygon fill="none" stroke="#000000" points="474,-78 474,-130 640,-130 640,-78 474,-78"/>
</g>
<g id="clust4" class="cluster">
<title>cluster_UserModule_imports</title>
<polygon fill="none" stroke="#000000" points="156,-78 156,-130 466,-130 466,-78 156,-78"/>
</g>
<g id="clust7" class="cluster">
<title>cluster_UserModule_providers</title>
<polygon fill="none" stroke="#000000" points="16,-78 16,-130 148,-130 148,-78 16,-78"/>
</g>
<!-- UserModelsComponent -->
<g id="node1" class="node">
<title>UserModelsComponent</title>
<polygon fill="#ffffb3" stroke="#000000" points="631.7534,-122 482.2466,-122 482.2466,-86 631.7534,-86 631.7534,-122"/>
<text text-anchor="middle" x="557" y="-99.8" font-family="Times,serif" font-size="14.00" fill="#000000">UserModelsComponent</text>
</g>
<!-- UserModule -->
<g id="node2" class="node">
<title>UserModule</title>
<polygon fill="#8dd3c7" stroke="#000000" points="356.9762,-187 353.9762,-191 332.9762,-191 329.9762,-187 271.0238,-187 271.0238,-151 356.9762,-151 356.9762,-187"/>
<text text-anchor="middle" x="314" y="-164.8" font-family="Times,serif" font-size="14.00" fill="#000000">UserModule</text>
</g>
<!-- UserModelsComponent&#45;&gt;UserModule -->
<g id="edge1" class="edge">
<title>UserModelsComponent&#45;&gt;UserModule</title>
<path fill="none" stroke="#000000" d="M557,-122.1061C557,-141.3391 557,-169 557,-169 557,-169 367.1635,-169 367.1635,-169"/>
<polygon fill="#000000" stroke="#000000" points="367.1636,-165.5001 357.1635,-169 367.1635,-172.5001 367.1636,-165.5001"/>
</g>
<!-- UserRoutingModule -->
<g id="node3" class="node">
<title>UserRoutingModule</title>
<polygon fill="#8dd3c7" stroke="#000000" points="457.594,-122 454.594,-126 433.594,-126 430.594,-122 326.406,-122 326.406,-86 457.594,-86 457.594,-122"/>
<text text-anchor="middle" x="392" y="-99.8" font-family="Times,serif" font-size="14.00" fill="#000000">UserRoutingModule</text>
</g>
<!-- UserRoutingModule&#45;&gt;UserModule -->
<g id="edge2" class="edge">
<title>UserRoutingModule&#45;&gt;UserModule</title>
<path fill="none" stroke="#000000" d="M341.7206,-122.1061C341.7206,-122.1061 341.7206,-140.991 341.7206,-140.991"/>
<polygon fill="#000000" stroke="#000000" points="338.2206,-140.9909 341.7206,-150.991 345.2206,-140.991 338.2206,-140.9909"/>
</g>
<!-- CustomFormlyModule -->
<g id="node4" class="node">
<title>CustomFormlyModule</title>
<polygon fill="#8dd3c7" stroke="#000000" points="308.337,-122 305.337,-126 284.337,-126 281.337,-122 163.663,-122 163.663,-86 308.337,-86 308.337,-122"/>
<text text-anchor="middle" x="236" y="-99.8" font-family="Times,serif" font-size="14.00" fill="#000000">CustomFormlyModule</text>
</g>
<!-- CustomFormlyModule&#45;&gt;UserModule -->
<g id="edge3" class="edge">
<title>CustomFormlyModule&#45;&gt;UserModule</title>
<path fill="none" stroke="#000000" d="M289.5901,-122.1061C289.5901,-122.1061 289.5901,-140.991 289.5901,-140.991"/>
<polygon fill="#000000" stroke="#000000" points="286.0902,-140.9909 289.5901,-150.991 293.0902,-140.991 286.0902,-140.9909"/>
</g>
<!-- UserService -->
<g id="node5" class="node">
<title>UserService</title>
<ellipse fill="#fdb462" stroke="#000000" cx="82" cy="-104" rx="58.4415" ry="18"/>
<text text-anchor="middle" x="82" y="-99.8" font-family="Times,serif" font-size="14.00" fill="#000000">UserService</text>
</g>
<!-- UserService&#45;&gt;UserModule -->
<g id="edge4" class="edge">
<title>UserService&#45;&gt;UserModule</title>
<path fill="none" stroke="#000000" d="M82,-122.1061C82,-141.3391 82,-169 82,-169 82,-169 260.9063,-169 260.9063,-169"/>
<polygon fill="#000000" stroke="#000000" points="260.9063,-172.5001 270.9063,-169 260.9063,-165.5001 260.9063,-172.5001"/>
</g>
</g>
</svg>
