<?xml version="1.0" encoding="UTF-8" standalone="no"?>
<!DOCTYPE svg PUBLIC "-//W3C//DTD SVG 1.1//EN"
 "http://www.w3.org/Graphics/SVG/1.1/DTD/svg11.dtd">
<!-- Generated by graphviz version 2.40.1 (20161225.0304)
 -->
<!-- Title: dependencies Pages: 1 -->
<svg width="1087pt" height="211pt"
 viewBox="0.00 0.00 1087.00 211.00" xmlns="http://www.w3.org/2000/svg" xmlns:xlink="http://www.w3.org/1999/xlink">
<g id="graph0" class="graph" transform="scale(1 1) rotate(0) translate(4 207)">
<title>dependencies</title>
<polygon fill="#ffffff" stroke="transparent" points="-4,4 -4,-207 1083,-207 1083,4 -4,4"/>
<text text-anchor="start" x="518.5091" y="-42.4" font-family="sans-serif" font-weight="bold" font-size="14.00" fill="#000000">Legend</text>
<polygon fill="#ffffb3" stroke="transparent" points="305.5,-10 305.5,-30 325.5,-30 325.5,-10 305.5,-10"/>
<text text-anchor="start" x="329.129" y="-15.4" font-family="sans-serif" font-size="14.00" fill="#000000"> &#160;Declarations</text>
<polygon fill="#8dd3c7" stroke="transparent" points="418.5,-10 418.5,-30 438.5,-30 438.5,-10 418.5,-10"/>
<text text-anchor="start" x="442.2251" y="-15.4" font-family="sans-serif" font-size="14.00" fill="#000000"> &#160;Module</text>
<polygon fill="#80b1d3" stroke="transparent" points="504.5,-10 504.5,-30 524.5,-30 524.5,-10 504.5,-10"/>
<text text-anchor="start" x="528.2812" y="-15.4" font-family="sans-serif" font-size="14.00" fill="#000000"> &#160;Bootstrap</text>
<polygon fill="#fdb462" stroke="transparent" points="601.5,-10 601.5,-30 621.5,-30 621.5,-10 601.5,-10"/>
<text text-anchor="start" x="625.1732" y="-15.4" font-family="sans-serif" font-size="14.00" fill="#000000"> &#160;Providers</text>
<polygon fill="#fb8072" stroke="transparent" points="697.5,-10 697.5,-30 717.5,-30 717.5,-10 697.5,-10"/>
<text text-anchor="start" x="721.2258" y="-15.4" font-family="sans-serif" font-size="14.00" fill="#000000"> &#160;Exports</text>
<g id="clust1" class="cluster">
<title>cluster_ValuationModule</title>
<polygon fill="none" stroke="#000000" stroke-dasharray="1,5" points="8,-70 8,-195 1071,-195 1071,-70 8,-70"/>
</g>
<g id="clust2" class="cluster">
<title>cluster_ValuationModule_declarations</title>
<polygon fill="none" stroke="#000000" points="362,-78 362,-130 1063,-130 1063,-78 362,-78"/>
</g>
<g id="clust7" class="cluster">
<title>cluster_ValuationModule_imports</title>
<polygon fill="none" stroke="#000000" points="16,-78 16,-130 354,-130 354,-78 16,-78"/>
</g>
<!-- ModelValuationComponent -->
<g id="node1" class="node">
<title>ModelValuationComponent</title>
<polygon fill="#ffffb3" stroke="#000000" points="1054.5898,-122 881.4102,-122 881.4102,-86 1054.5898,-86 1054.5898,-122"/>
<text text-anchor="middle" x="968" y="-99.8" font-family="Times,serif" font-size="14.00" fill="#000000">ModelValuationComponent</text>
</g>
<!-- ValuationModule -->
<g id="node5" class="node">
<title>ValuationModule</title>
<polygon fill="#8dd3c7" stroke="#000000" points="591.2577,-187 588.2577,-191 567.2577,-191 564.2577,-187 476.7423,-187 476.7423,-151 591.2577,-151 591.2577,-187"/>
<text text-anchor="middle" x="534" y="-164.8" font-family="Times,serif" font-size="14.00" fill="#000000">ValuationModule</text>
</g>
<!-- ModelValuationComponent&#45;&gt;ValuationModule -->
<g id="edge1" class="edge">
<title>ModelValuationComponent&#45;&gt;ValuationModule</title>
<path fill="none" stroke="#000000" d="M968,-122.2843C968,-143.3211 968,-175 968,-175 968,-175 601.6318,-175 601.6318,-175"/>
<polygon fill="#000000" stroke="#000000" points="601.6319,-171.5001 591.6318,-175 601.6318,-178.5001 601.6319,-171.5001"/>
</g>
<!-- VariableFormComponent -->
<g id="node2" class="node">
<title>VariableFormComponent</title>
<polygon fill="#ffffb3" stroke="#000000" points="863.8585,-122 704.1415,-122 704.1415,-86 863.8585,-86 863.8585,-122"/>
<text text-anchor="middle" x="784" y="-99.8" font-family="Times,serif" font-size="14.00" fill="#000000">VariableFormComponent</text>
</g>
<!-- VariableFormComponent&#45;&gt;ValuationModule -->
<g id="edge2" class="edge">
<title>VariableFormComponent&#45;&gt;ValuationModule</title>
<path fill="none" stroke="#000000" d="M784,-122.0225C784,-139.3734 784,-163 784,-163 784,-163 601.355,-163 601.355,-163"/>
<polygon fill="#000000" stroke="#000000" points="601.3551,-159.5001 591.355,-163 601.355,-166.5001 601.3551,-159.5001"/>
</g>
<!-- ValuationComponent -->
<g id="node3" class="node">
<title>ValuationComponent</title>
<polygon fill="#ffffb3" stroke="#000000" points="686.0408,-122 549.9592,-122 549.9592,-86 686.0408,-86 686.0408,-122"/>
<text text-anchor="middle" x="618" y="-99.8" font-family="Times,serif" font-size="14.00" fill="#000000">ValuationComponent</text>
</g>
<!-- ValuationComponent&#45;&gt;ValuationModule -->
<g id="edge3" class="edge">
<title>ValuationComponent&#45;&gt;ValuationModule</title>
<path fill="none" stroke="#000000" d="M570.5544,-122.1061C570.5544,-122.1061 570.5544,-140.991 570.5544,-140.991"/>
<polygon fill="#000000" stroke="#000000" points="567.0544,-140.9909 570.5544,-150.991 574.0544,-140.991 567.0544,-140.9909"/>
</g>
<!-- IndicatorViewComponent -->
<g id="node4" class="node">
<title>IndicatorViewComponent</title>
<polygon fill="#ffffb3" stroke="#000000" points="532.1825,-122 369.8175,-122 369.8175,-86 532.1825,-86 532.1825,-122"/>
<text text-anchor="middle" x="451" y="-99.8" font-family="Times,serif" font-size="14.00" fill="#000000">IndicatorViewComponent</text>
</g>
<!-- IndicatorViewComponent&#45;&gt;ValuationModule -->
<g id="edge4" class="edge">
<title>IndicatorViewComponent&#45;&gt;ValuationModule</title>
<path fill="none" stroke="#000000" d="M504.3563,-122.1061C504.3563,-122.1061 504.3563,-140.991 504.3563,-140.991"/>
<polygon fill="#000000" stroke="#000000" points="500.8563,-140.9909 504.3563,-150.991 507.8563,-140.991 500.8563,-140.9909"/>
</g>
<!-- ValuationRoutingModule -->
<g id="node6" class="node">
<title>ValuationRoutingModule</title>
<polygon fill="#8dd3c7" stroke="#000000" points="345.8752,-122 342.8752,-126 321.8752,-126 318.8752,-122 186.1248,-122 186.1248,-86 345.8752,-86 345.8752,-122"/>
<text text-anchor="middle" x="266" y="-99.8" font-family="Times,serif" font-size="14.00" fill="#000000">ValuationRoutingModule</text>
</g>
<!-- ValuationRoutingModule&#45;&gt;ValuationModule -->
<g id="edge5" class="edge">
<title>ValuationRoutingModule&#45;&gt;ValuationModule</title>
<path fill="none" stroke="#000000" d="M266,-122.0225C266,-139.3734 266,-163 266,-163 266,-163 466.5073,-163 466.5073,-163"/>
<polygon fill="#000000" stroke="#000000" points="466.5073,-166.5001 476.5073,-163 466.5072,-159.5001 466.5073,-166.5001"/>
</g>
<!-- CustomFormlyModule -->
<g id="node7" class="node">
<title>CustomFormlyModule</title>
<polygon fill="#8dd3c7" stroke="#000000" points="168.337,-122 165.337,-126 144.337,-126 141.337,-122 23.663,-122 23.663,-86 168.337,-86 168.337,-122"/>
<text text-anchor="middle" x="96" y="-99.8" font-family="Times,serif" font-size="14.00" fill="#000000">CustomFormlyModule</text>
</g>
<!-- CustomFormlyModule&#45;&gt;ValuationModule -->
<g id="edge6" class="edge">
<title>CustomFormlyModule&#45;&gt;ValuationModule</title>
<path fill="none" stroke="#000000" d="M96,-122.2843C96,-143.3211 96,-175 96,-175 96,-175 466.7391,-175 466.7391,-175"/>
<polygon fill="#000000" stroke="#000000" points="466.7392,-178.5001 476.7391,-175 466.7391,-171.5001 466.7392,-178.5001"/>
</g>
</g>
</svg>
