<?xml version="1.0" encoding="UTF-8" standalone="no"?>
<!DOCTYPE svg PUBLIC "-//W3C//DTD SVG 1.1//EN"
 "http://www.w3.org/Graphics/SVG/1.1/DTD/svg11.dtd">
<!-- Generated by graphviz version 2.40.1 (20161225.0304)
 -->
<!-- Title: dependencies Pages: 1 -->
<svg width="1117pt" height="211pt"
 viewBox="0.00 0.00 1117.00 211.00" xmlns="http://www.w3.org/2000/svg" xmlns:xlink="http://www.w3.org/1999/xlink">
<g id="graph0" class="graph" transform="scale(1 1) rotate(0) translate(4 207)">
<title>dependencies</title>
<polygon fill="#ffffff" stroke="transparent" points="-4,4 -4,-207 1113,-207 1113,4 -4,4"/>
<text text-anchor="start" x="533.5091" y="-42.4" font-family="sans-serif" font-weight="bold" font-size="14.00" fill="#000000">Legend</text>
<polygon fill="#ffffb3" stroke="transparent" points="320.5,-10 320.5,-30 340.5,-30 340.5,-10 320.5,-10"/>
<text text-anchor="start" x="344.129" y="-15.4" font-family="sans-serif" font-size="14.00" fill="#000000"> &#160;Declarations</text>
<polygon fill="#8dd3c7" stroke="transparent" points="433.5,-10 433.5,-30 453.5,-30 453.5,-10 433.5,-10"/>
<text text-anchor="start" x="457.2251" y="-15.4" font-family="sans-serif" font-size="14.00" fill="#000000"> &#160;Module</text>
<polygon fill="#80b1d3" stroke="transparent" points="519.5,-10 519.5,-30 539.5,-30 539.5,-10 519.5,-10"/>
<text text-anchor="start" x="543.2812" y="-15.4" font-family="sans-serif" font-size="14.00" fill="#000000"> &#160;Bootstrap</text>
<polygon fill="#fdb462" stroke="transparent" points="616.5,-10 616.5,-30 636.5,-30 636.5,-10 616.5,-10"/>
<text text-anchor="start" x="640.1732" y="-15.4" font-family="sans-serif" font-size="14.00" fill="#000000"> &#160;Providers</text>
<polygon fill="#fb8072" stroke="transparent" points="712.5,-10 712.5,-30 732.5,-30 732.5,-10 712.5,-10"/>
<text text-anchor="start" x="736.2258" y="-15.4" font-family="sans-serif" font-size="14.00" fill="#000000"> &#160;Exports</text>
<g id="clust1" class="cluster">
<title>cluster_ConceptModule</title>
<polygon fill="none" stroke="#000000" stroke-dasharray="1,5" points="8,-70 8,-195 1101,-195 1101,-70 8,-70"/>
</g>
<g id="clust2" class="cluster">
<title>cluster_ConceptModule_declarations</title>
<polygon fill="none" stroke="#000000" points="522,-78 522,-130 1093,-130 1093,-78 522,-78"/>
</g>
<g id="clust6" class="cluster">
<title>cluster_ConceptModule_imports</title>
<polygon fill="none" stroke="#000000" points="184,-78 184,-130 514,-130 514,-78 184,-78"/>
</g>
<g id="clust9" class="cluster">
<title>cluster_ConceptModule_providers</title>
<polygon fill="none" stroke="#000000" points="16,-78 16,-130 176,-130 176,-78 16,-78"/>
</g>
<!-- VariableConceptComponent -->
<g id="node1" class="node">
<title>VariableConceptComponent</title>
<polygon fill="#ffffb3" stroke="#000000" points="1085.1811,-122 908.8189,-122 908.8189,-86 1085.1811,-86 1085.1811,-122"/>
<text text-anchor="middle" x="997" y="-99.8" font-family="Times,serif" font-size="14.00" fill="#000000">VariableConceptComponent</text>
</g>
<!-- ConceptModule -->
<g id="node4" class="node">
<title>ConceptModule</title>
<polygon fill="#8dd3c7" stroke="#000000" points="574.2064,-187 571.2064,-191 550.2064,-191 547.2064,-187 467.7936,-187 467.7936,-151 574.2064,-151 574.2064,-187"/>
<text text-anchor="middle" x="521" y="-164.8" font-family="Times,serif" font-size="14.00" fill="#000000">ConceptModule</text>
</g>
<!-- VariableConceptComponent&#45;&gt;ConceptModule -->
<g id="edge1" class="edge">
<title>VariableConceptComponent&#45;&gt;ConceptModule</title>
<path fill="none" stroke="#000000" d="M997,-122.2843C997,-143.3211 997,-175 997,-175 997,-175 584.2177,-175 584.2177,-175"/>
<polygon fill="#000000" stroke="#000000" points="584.2177,-171.5001 574.2177,-175 584.2177,-178.5001 584.2177,-171.5001"/>
</g>
<!-- IndicatorConceptComponent -->
<g id="node2" class="node">
<title>IndicatorConceptComponent</title>
<polygon fill="#ffffb3" stroke="#000000" points="891.021,-122 712.979,-122 712.979,-86 891.021,-86 891.021,-122"/>
<text text-anchor="middle" x="802" y="-99.8" font-family="Times,serif" font-size="14.00" fill="#000000">IndicatorConceptComponent</text>
</g>
<!-- IndicatorConceptComponent&#45;&gt;ConceptModule -->
<g id="edge2" class="edge">
<title>IndicatorConceptComponent&#45;&gt;ConceptModule</title>
<path fill="none" stroke="#000000" d="M802,-122.0225C802,-139.3734 802,-163 802,-163 802,-163 584.1843,-163 584.1843,-163"/>
<polygon fill="#000000" stroke="#000000" points="584.1843,-159.5001 574.1843,-163 584.1843,-166.5001 584.1843,-159.5001"/>
</g>
<!-- ModelConceptComponent -->
<g id="node3" class="node">
<title>ModelConceptComponent</title>
<polygon fill="#ffffb3" stroke="#000000" points="694.0392,-122 529.9608,-122 529.9608,-86 694.0392,-86 694.0392,-122"/>
<text text-anchor="middle" x="612" y="-99.8" font-family="Times,serif" font-size="14.00" fill="#000000">ModelConceptComponent</text>
</g>
<!-- ModelConceptComponent&#45;&gt;ConceptModule -->
<g id="edge3" class="edge">
<title>ModelConceptComponent&#45;&gt;ConceptModule</title>
<path fill="none" stroke="#000000" d="M551.9169,-122.1061C551.9169,-122.1061 551.9169,-140.991 551.9169,-140.991"/>
<polygon fill="#000000" stroke="#000000" points="548.417,-140.9909 551.9169,-150.991 555.417,-140.991 548.417,-140.9909"/>
</g>
<!-- ConceptRoutingModule -->
<g id="node5" class="node">
<title>ConceptRoutingModule</title>
<polygon fill="#8dd3c7" stroke="#000000" points="505.8243,-122 502.8243,-126 481.8243,-126 478.8243,-122 354.1757,-122 354.1757,-86 505.8243,-86 505.8243,-122"/>
<text text-anchor="middle" x="430" y="-99.8" font-family="Times,serif" font-size="14.00" fill="#000000">ConceptRoutingModule</text>
</g>
<!-- ConceptRoutingModule&#45;&gt;ConceptModule -->
<g id="edge4" class="edge">
<title>ConceptRoutingModule&#45;&gt;ConceptModule</title>
<path fill="none" stroke="#000000" d="M486.7795,-122.1061C486.7795,-122.1061 486.7795,-140.991 486.7795,-140.991"/>
<polygon fill="#000000" stroke="#000000" points="483.2795,-140.9909 486.7795,-150.991 490.2795,-140.991 483.2795,-140.9909"/>
</g>
<!-- CustomFormlyModule -->
<g id="node6" class="node">
<title>CustomFormlyModule</title>
<polygon fill="#8dd3c7" stroke="#000000" points="336.337,-122 333.337,-126 312.337,-126 309.337,-122 191.663,-122 191.663,-86 336.337,-86 336.337,-122"/>
<text text-anchor="middle" x="264" y="-99.8" font-family="Times,serif" font-size="14.00" fill="#000000">CustomFormlyModule</text>
</g>
<!-- CustomFormlyModule&#45;&gt;ConceptModule -->
<g id="edge5" class="edge">
<title>CustomFormlyModule&#45;&gt;ConceptModule</title>
<path fill="none" stroke="#000000" d="M264,-122.0225C264,-139.3734 264,-163 264,-163 264,-163 457.7494,-163 457.7494,-163"/>
<polygon fill="#000000" stroke="#000000" points="457.7495,-166.5001 467.7494,-163 457.7494,-159.5001 457.7495,-166.5001"/>
</g>
<!-- ConceptService -->
<g id="node7" class="node">
<title>ConceptService</title>
<ellipse fill="#fdb462" stroke="#000000" cx="96" cy="-104" rx="72.3497" ry="18"/>
<text text-anchor="middle" x="96" y="-99.8" font-family="Times,serif" font-size="14.00" fill="#000000">ConceptService</text>
</g>
<!-- ConceptService&#45;&gt;ConceptModule -->
<g id="edge6" class="edge">
<title>ConceptService&#45;&gt;ConceptModule</title>
<path fill="none" stroke="#000000" d="M96,-122.2843C96,-143.3211 96,-175 96,-175 96,-175 457.6038,-175 457.6038,-175"/>
<polygon fill="#000000" stroke="#000000" points="457.6038,-178.5001 467.6038,-175 457.6038,-171.5001 457.6038,-178.5001"/>
</g>
</g>
</svg>
