<?xml version="1.0" encoding="UTF-8" standalone="no"?>
<!DOCTYPE svg PUBLIC "-//W3C//DTD SVG 1.1//EN"
 "http://www.w3.org/Graphics/SVG/1.1/DTD/svg11.dtd">
<!-- Generated by graphviz version 2.40.1 (20161225.0304)
 -->
<!-- Title: dependencies Pages: 1 -->
<svg width="2530pt" height="284pt"
 viewBox="0.00 0.00 2530.00 284.00" xmlns="http://www.w3.org/2000/svg" xmlns:xlink="http://www.w3.org/1999/xlink">
<g id="graph0" class="graph" transform="scale(1 1) rotate(0) translate(4 280)">
<title>dependencies</title>
<polygon fill="#ffffff" stroke="transparent" points="-4,4 -4,-280 2526,-280 2526,4 -4,4"/>
<text text-anchor="start" x="1240.0091" y="-42.4" font-family="sans-serif" font-weight="bold" font-size="14.00" fill="#000000">Legend</text>
<polygon fill="#ffffb3" stroke="transparent" points="1027,-10 1027,-30 1047,-30 1047,-10 1027,-10"/>
<text text-anchor="start" x="1050.629" y="-15.4" font-family="sans-serif" font-size="14.00" fill="#000000"> &#160;Declarations</text>
<polygon fill="#8dd3c7" stroke="transparent" points="1140,-10 1140,-30 1160,-30 1160,-10 1140,-10"/>
<text text-anchor="start" x="1163.7251" y="-15.4" font-family="sans-serif" font-size="14.00" fill="#000000"> &#160;Module</text>
<polygon fill="#80b1d3" stroke="transparent" points="1226,-10 1226,-30 1246,-30 1246,-10 1226,-10"/>
<text text-anchor="start" x="1249.7812" y="-15.4" font-family="sans-serif" font-size="14.00" fill="#000000"> &#160;Bootstrap</text>
<polygon fill="#fdb462" stroke="transparent" points="1323,-10 1323,-30 1343,-30 1343,-10 1323,-10"/>
<text text-anchor="start" x="1346.6732" y="-15.4" font-family="sans-serif" font-size="14.00" fill="#000000"> &#160;Providers</text>
<polygon fill="#fb8072" stroke="transparent" points="1419,-10 1419,-30 1439,-30 1439,-10 1419,-10"/>
<text text-anchor="start" x="1442.7258" y="-15.4" font-family="sans-serif" font-size="14.00" fill="#000000"> &#160;Exports</text>
<g id="clust1" class="cluster">
<title>cluster_AppModule</title>
<polygon fill="none" stroke="#000000" stroke-dasharray="1,5" points="8,-70 8,-268 2514,-268 2514,-70 8,-70"/>
</g>
<g id="clust2" class="cluster">
<title>cluster_AppModule_declarations</title>
<polygon fill="none" stroke="#000000" points="1264,-78 1264,-130 2506,-130 2506,-78 1264,-78"/>
</g>
<g id="clust11" class="cluster">
<title>cluster_AppModule_imports</title>
<polygon fill="none" stroke="#000000" points="949,-78 949,-130 1256,-130 1256,-78 949,-78"/>
</g>
<g id="clust13" class="cluster">
<title>cluster_AppModule_bootstrap</title>
<polygon fill="none" stroke="#000000" points="1198,-208 1198,-260 1322,-260 1322,-208 1198,-208"/>
</g>
<g id="clust14" class="cluster">
<title>cluster_AppModule_providers</title>
<polygon fill="none" stroke="#000000" points="16,-78 16,-130 941,-130 941,-78 16,-78"/>
</g>
<!-- AppComponent -->
<g id="node1" class="node">
<title>AppComponent</title>
<polygon fill="#ffffb3" stroke="#000000" points="2497.9399,-122 2392.0601,-122 2392.0601,-86 2497.9399,-86 2497.9399,-122"/>
<text text-anchor="middle" x="2445" y="-99.8" font-family="Times,serif" font-size="14.00" fill="#000000">AppComponent</text>
</g>
<!-- AppModule -->
<g id="node9" class="node">
<title>AppModule</title>
<polygon fill="#8dd3c7" stroke="#000000" points="1301.6571,-187 1298.6571,-191 1277.6571,-191 1274.6571,-187 1218.3429,-187 1218.3429,-151 1301.6571,-151 1301.6571,-187"/>
<text text-anchor="middle" x="1260" y="-164.8" font-family="Times,serif" font-size="14.00" fill="#000000">AppModule</text>
</g>
<!-- AppComponent&#45;&gt;AppModule -->
<g id="edge1" class="edge">
<title>AppComponent&#45;&gt;AppModule</title>
<path fill="none" stroke="#000000" d="M2445,-122.3228C2445,-145.6602 2445,-183 2445,-183 2445,-183 1311.8267,-183 1311.8267,-183"/>
<polygon fill="#000000" stroke="#000000" points="1311.8267,-179.5001 1301.8267,-183 1311.8267,-186.5001 1311.8267,-179.5001"/>
</g>
<!-- AppfooterComponent -->
<g id="node2" class="node">
<title>AppfooterComponent</title>
<polygon fill="#ffffb3" stroke="#000000" points="2374.3655,-122 2235.6345,-122 2235.6345,-86 2374.3655,-86 2374.3655,-122"/>
<text text-anchor="middle" x="2305" y="-99.8" font-family="Times,serif" font-size="14.00" fill="#000000">AppfooterComponent</text>
</g>
<!-- AppfooterComponent&#45;&gt;AppModule -->
<g id="edge2" class="edge">
<title>AppfooterComponent&#45;&gt;AppModule</title>
<path fill="none" stroke="#000000" d="M2305,-122.2921C2305,-144.2057 2305,-178 2305,-178 2305,-178 1311.9342,-178 1311.9342,-178"/>
<polygon fill="#000000" stroke="#000000" points="1311.9343,-174.5001 1301.9342,-178 1311.9342,-181.5001 1311.9343,-174.5001"/>
</g>
<!-- AppheaderComponent -->
<g id="node3" class="node">
<title>AppheaderComponent</title>
<polygon fill="#ffffb3" stroke="#000000" points="2217.2436,-122 2074.7564,-122 2074.7564,-86 2217.2436,-86 2217.2436,-122"/>
<text text-anchor="middle" x="2146" y="-99.8" font-family="Times,serif" font-size="14.00" fill="#000000">AppheaderComponent</text>
</g>
<!-- AppheaderComponent&#45;&gt;AppModule -->
<g id="edge3" class="edge">
<title>AppheaderComponent&#45;&gt;AppModule</title>
<path fill="none" stroke="#000000" d="M2146,-122.0267C2146,-142.7672 2146,-174 2146,-174 2146,-174 1311.8409,-174 1311.8409,-174"/>
<polygon fill="#000000" stroke="#000000" points="1311.841,-170.5001 1301.8409,-174 1311.8409,-177.5001 1311.841,-170.5001"/>
</g>
<!-- AppmenuComponent -->
<g id="node4" class="node">
<title>AppmenuComponent</title>
<polygon fill="#ffffb3" stroke="#000000" points="2056.045,-122 1919.955,-122 1919.955,-86 2056.045,-86 2056.045,-122"/>
<text text-anchor="middle" x="1988" y="-99.8" font-family="Times,serif" font-size="14.00" fill="#000000">AppmenuComponent</text>
</g>
<!-- AppmenuComponent&#45;&gt;AppModule -->
<g id="edge4" class="edge">
<title>AppmenuComponent&#45;&gt;AppModule</title>
<path fill="none" stroke="#000000" d="M1988,-122.1061C1988,-141.3391 1988,-169 1988,-169 1988,-169 1311.7552,-169 1311.7552,-169"/>
<polygon fill="#000000" stroke="#000000" points="1311.7552,-165.5001 1301.7552,-169 1311.7552,-172.5001 1311.7552,-165.5001"/>
</g>
<!-- AppsettingsComponent -->
<g id="node5" class="node">
<title>AppsettingsComponent</title>
<polygon fill="#ffffb3" stroke="#000000" points="1902.2148,-122 1753.7852,-122 1753.7852,-86 1902.2148,-86 1902.2148,-122"/>
<text text-anchor="middle" x="1828" y="-99.8" font-family="Times,serif" font-size="14.00" fill="#000000">AppsettingsComponent</text>
</g>
<!-- AppsettingsComponent&#45;&gt;AppModule -->
<g id="edge5" class="edge">
<title>AppsettingsComponent&#45;&gt;AppModule</title>
<path fill="none" stroke="#000000" d="M1828,-122.302C1828,-140.2699 1828,-165 1828,-165 1828,-165 1311.7664,-165 1311.7664,-165"/>
<polygon fill="#000000" stroke="#000000" points="1311.7664,-161.5001 1301.7664,-165 1311.7664,-168.5001 1311.7664,-161.5001"/>
</g>
<!-- SpreadsheetLoaderComponent -->
<g id="node6" class="node">
<title>SpreadsheetLoaderComponent</title>
<polygon fill="#ffffb3" stroke="#000000" points="1736.112,-122 1547.888,-122 1547.888,-86 1736.112,-86 1736.112,-122"/>
<text text-anchor="middle" x="1642" y="-99.8" font-family="Times,serif" font-size="14.00" fill="#000000">SpreadsheetLoaderComponent</text>
</g>
<!-- SpreadsheetLoaderComponent&#45;&gt;AppModule -->
<g id="edge6" class="edge">
<title>SpreadsheetLoaderComponent&#45;&gt;AppModule</title>
<path fill="none" stroke="#000000" d="M1642,-122.027C1642,-138.3976 1642,-160 1642,-160 1642,-160 1311.9734,-160 1311.9734,-160"/>
<polygon fill="#000000" stroke="#000000" points="1311.9734,-156.5001 1301.9734,-160 1311.9734,-163.5001 1311.9734,-156.5001"/>
</g>
<!-- AlertComponent -->
<g id="node7" class="node">
<title>AlertComponent</title>
<polygon fill="#ffffb3" stroke="#000000" points="1530.0954,-122 1419.9046,-122 1419.9046,-86 1530.0954,-86 1530.0954,-122"/>
<text text-anchor="middle" x="1475" y="-99.8" font-family="Times,serif" font-size="14.00" fill="#000000">AlertComponent</text>
</g>
<!-- AlertComponent&#45;&gt;AppModule -->
<g id="edge7" class="edge">
<title>AlertComponent&#45;&gt;AppModule</title>
<path fill="none" stroke="#000000" d="M1475,-122.1871C1475,-137.1824 1475,-156 1475,-156 1475,-156 1311.7091,-156 1311.7091,-156"/>
<polygon fill="#000000" stroke="#000000" points="1311.7091,-152.5001 1301.7091,-156 1311.7091,-159.5001 1311.7091,-152.5001"/>
</g>
<!-- ConfirmationDialog -->
<g id="node8" class="node">
<title>ConfirmationDialog</title>
<polygon fill="#ffffb3" stroke="#000000" points="1401.538,-122 1272.462,-122 1272.462,-86 1401.538,-86 1401.538,-122"/>
<text text-anchor="middle" x="1337" y="-99.8" font-family="Times,serif" font-size="14.00" fill="#000000">ConfirmationDialog</text>
</g>
<!-- ConfirmationDialog&#45;&gt;AppModule -->
<g id="edge8" class="edge">
<title>ConfirmationDialog&#45;&gt;AppModule</title>
<path fill="none" stroke="#000000" d="M1287.0298,-122.1061C1287.0298,-122.1061 1287.0298,-140.991 1287.0298,-140.991"/>
<polygon fill="#000000" stroke="#000000" points="1283.5299,-140.9909 1287.0298,-150.991 1290.5299,-140.991 1283.5299,-140.9909"/>
</g>
<!-- AppComponent  -->
<g id="node12" class="node">
<title>AppComponent </title>
<polygon fill="#80b1d3" stroke="#000000" points="1314.439,-252 1205.561,-252 1205.561,-216 1314.439,-216 1314.439,-252"/>
<text text-anchor="middle" x="1260" y="-229.8" font-family="Times,serif" font-size="14.00" fill="#000000">AppComponent </text>
</g>
<!-- AppModule&#45;&gt;AppComponent  -->
<g id="edge11" class="edge">
<title>AppModule&#45;&gt;AppComponent </title>
<path fill="none" stroke="#000000" stroke-dasharray="1,5" d="M1260,-187.1061C1260,-187.1061 1260,-205.991 1260,-205.991"/>
<polygon fill="#000000" stroke="#000000" points="1256.5001,-205.9909 1260,-215.991 1263.5001,-205.991 1256.5001,-205.9909"/>
</g>
<!-- AppRoutingModule -->
<g id="node10" class="node">
<title>AppRoutingModule</title>
<polygon fill="#8dd3c7" stroke="#000000" points="1248.2744,-122 1245.2744,-126 1224.2744,-126 1221.2744,-122 1119.7256,-122 1119.7256,-86 1248.2744,-86 1248.2744,-122"/>
<text text-anchor="middle" x="1184" y="-99.8" font-family="Times,serif" font-size="14.00" fill="#000000">AppRoutingModule</text>
</g>
<!-- AppRoutingModule&#45;&gt;AppModule -->
<g id="edge9" class="edge">
<title>AppRoutingModule&#45;&gt;AppModule</title>
<path fill="none" stroke="#000000" d="M1233.2795,-122.1061C1233.2795,-122.1061 1233.2795,-140.991 1233.2795,-140.991"/>
<polygon fill="#000000" stroke="#000000" points="1229.7795,-140.9909 1233.2795,-150.991 1236.7795,-140.991 1229.7795,-140.9909"/>
</g>
<!-- CustomFormlyModule -->
<g id="node11" class="node">
<title>CustomFormlyModule</title>
<polygon fill="#8dd3c7" stroke="#000000" points="1101.337,-122 1098.337,-126 1077.337,-126 1074.337,-122 956.663,-122 956.663,-86 1101.337,-86 1101.337,-122"/>
<text text-anchor="middle" x="1029" y="-99.8" font-family="Times,serif" font-size="14.00" fill="#000000">CustomFormlyModule</text>
</g>
<!-- CustomFormlyModule&#45;&gt;AppModule -->
<g id="edge10" class="edge">
<title>CustomFormlyModule&#45;&gt;AppModule</title>
<path fill="none" stroke="#000000" d="M1029,-122.1871C1029,-137.1824 1029,-156 1029,-156 1029,-156 1208.1676,-156 1208.1676,-156"/>
<polygon fill="#000000" stroke="#000000" points="1208.1677,-159.5001 1218.1676,-156 1208.1676,-152.5001 1208.1677,-159.5001"/>
</g>
<!-- AlertService -->
<g id="node13" class="node">
<title>AlertService</title>
<ellipse fill="#fdb462" stroke="#000000" cx="873" cy="-104" rx="59.6646" ry="18"/>
<text text-anchor="middle" x="873" y="-99.8" font-family="Times,serif" font-size="14.00" fill="#000000">AlertService</text>
</g>
<!-- AlertService&#45;&gt;AppModule -->
<g id="edge12" class="edge">
<title>AlertService&#45;&gt;AppModule</title>
<path fill="none" stroke="#000000" d="M873,-122.027C873,-138.3976 873,-160 873,-160 873,-160 1208.2165,-160 1208.2165,-160"/>
<polygon fill="#000000" stroke="#000000" points="1208.2166,-163.5001 1218.2165,-160 1208.2165,-156.5001 1208.2166,-163.5001"/>
</g>
<!-- SpreadsheetService -->
<g id="node14" class="node">
<title>SpreadsheetService</title>
<ellipse fill="#fdb462" stroke="#000000" cx="709" cy="-104" rx="86.7933" ry="18"/>
<text text-anchor="middle" x="709" y="-99.8" font-family="Times,serif" font-size="14.00" fill="#000000">SpreadsheetService</text>
</g>
<!-- SpreadsheetService&#45;&gt;AppModule -->
<g id="edge13" class="edge">
<title>SpreadsheetService&#45;&gt;AppModule</title>
<path fill="none" stroke="#000000" d="M709,-122.302C709,-140.2699 709,-165 709,-165 709,-165 1208.1332,-165 1208.1332,-165"/>
<polygon fill="#000000" stroke="#000000" points="1208.1332,-168.5001 1218.1332,-165 1208.1332,-161.5001 1208.1332,-168.5001"/>
</g>
<!-- TypeService -->
<g id="node15" class="node">
<title>TypeService</title>
<ellipse fill="#fdb462" stroke="#000000" cx="545" cy="-104" rx="59.6704" ry="18"/>
<text text-anchor="middle" x="545" y="-99.8" font-family="Times,serif" font-size="14.00" fill="#000000">TypeService</text>
</g>
<!-- TypeService&#45;&gt;AppModule -->
<g id="edge14" class="edge">
<title>TypeService&#45;&gt;AppModule</title>
<path fill="none" stroke="#000000" d="M545,-122.1061C545,-141.3391 545,-169 545,-169 545,-169 1208.2058,-169 1208.2058,-169"/>
<polygon fill="#000000" stroke="#000000" points="1208.2059,-172.5001 1218.2058,-169 1208.2058,-165.5001 1208.2059,-172.5001"/>
</g>
<!-- ModelService -->
<g id="node16" class="node">
<title>ModelService</title>
<ellipse fill="#fdb462" stroke="#000000" cx="402" cy="-104" rx="65.4072" ry="18"/>
<text text-anchor="middle" x="402" y="-99.8" font-family="Times,serif" font-size="14.00" fill="#000000">ModelService</text>
</g>
<!-- ModelService&#45;&gt;AppModule -->
<g id="edge15" class="edge">
<title>ModelService&#45;&gt;AppModule</title>
<path fill="none" stroke="#000000" d="M402,-122.0267C402,-142.7672 402,-174 402,-174 402,-174 1208.3269,-174 1208.3269,-174"/>
<polygon fill="#000000" stroke="#000000" points="1208.327,-177.5001 1218.3269,-174 1208.3269,-170.5001 1208.327,-177.5001"/>
</g>
<!-- MathService -->
<g id="node17" class="node">
<title>MathService</title>
<ellipse fill="#fdb462" stroke="#000000" cx="258" cy="-104" rx="60.2499" ry="18"/>
<text text-anchor="middle" x="258" y="-99.8" font-family="Times,serif" font-size="14.00" fill="#000000">MathService</text>
</g>
<!-- MathService&#45;&gt;AppModule -->
<g id="edge16" class="edge">
<title>MathService&#45;&gt;AppModule</title>
<path fill="none" stroke="#000000" d="M258,-122.2921C258,-144.2057 258,-178 258,-178 258,-178 1208.221,-178 1208.221,-178"/>
<polygon fill="#000000" stroke="#000000" points="1208.221,-181.5001 1218.221,-178 1208.221,-174.5001 1208.221,-181.5001"/>
</g>
<!-- ValuationService -->
<g id="node18" class="node">
<title>ValuationService</title>
<ellipse fill="#fdb462" stroke="#000000" cx="102" cy="-104" rx="78.1462" ry="18"/>
<text text-anchor="middle" x="102" y="-99.8" font-family="Times,serif" font-size="14.00" fill="#000000">ValuationService</text>
</g>
<!-- ValuationService&#45;&gt;AppModule -->
<g id="edge17" class="edge">
<title>ValuationService&#45;&gt;AppModule</title>
<path fill="none" stroke="#000000" d="M102,-122.3228C102,-145.6602 102,-183 102,-183 102,-183 1208.102,-183 1208.102,-183"/>
<polygon fill="#000000" stroke="#000000" points="1208.1021,-186.5001 1218.102,-183 1208.102,-179.5001 1208.1021,-186.5001"/>
</g>
</g>
</svg>
