<?xml version="1.0" encoding="UTF-8" standalone="no"?>
<!DOCTYPE svg PUBLIC "-//W3C//DTD SVG 1.1//EN"
 "http://www.w3.org/Graphics/SVG/1.1/DTD/svg11.dtd">
<!-- Generated by graphviz version 2.40.1 (20161225.0304)
 -->
<!-- Title: dependencies Pages: 1 -->
<svg width="504pt" height="284pt"
 viewBox="0.00 0.00 504.00 284.00" xmlns="http://www.w3.org/2000/svg" xmlns:xlink="http://www.w3.org/1999/xlink">
<g id="graph0" class="graph" transform="scale(1 1) rotate(0) translate(4 280)">
<title>dependencies</title>
<polygon fill="#ffffff" stroke="transparent" points="-4,4 -4,-280 500,-280 500,4 -4,4"/>
<text text-anchor="start" x="227.0091" y="-42.4" font-family="sans-serif" font-weight="bold" font-size="14.00" fill="#000000">Legend</text>
<polygon fill="#ffffb3" stroke="transparent" points="14,-10 14,-30 34,-30 34,-10 14,-10"/>
<text text-anchor="start" x="37.629" y="-15.4" font-family="sans-serif" font-size="14.00" fill="#000000"> &#160;Declarations</text>
<polygon fill="#8dd3c7" stroke="transparent" points="127,-10 127,-30 147,-30 147,-10 127,-10"/>
<text text-anchor="start" x="150.7251" y="-15.4" font-family="sans-serif" font-size="14.00" fill="#000000"> &#160;Module</text>
<polygon fill="#80b1d3" stroke="transparent" points="213,-10 213,-30 233,-30 233,-10 213,-10"/>
<text text-anchor="start" x="236.7812" y="-15.4" font-family="sans-serif" font-size="14.00" fill="#000000"> &#160;Bootstrap</text>
<polygon fill="#fdb462" stroke="transparent" points="310,-10 310,-30 330,-30 330,-10 310,-10"/>
<text text-anchor="start" x="333.6732" y="-15.4" font-family="sans-serif" font-size="14.00" fill="#000000"> &#160;Providers</text>
<polygon fill="#fb8072" stroke="transparent" points="406,-10 406,-30 426,-30 426,-10 406,-10"/>
<text text-anchor="start" x="429.7258" y="-15.4" font-family="sans-serif" font-size="14.00" fill="#000000"> &#160;Exports</text>
<g id="clust1" class="cluster">
<title>cluster_CustomFormlyModule</title>
<polygon fill="none" stroke="#000000" stroke-dasharray="1,5" points="88.5,-70 88.5,-268 407.5,-268 407.5,-70 88.5,-70"/>
</g>
<g id="clust2" class="cluster">
<title>cluster_CustomFormlyModule_declarations</title>
<polygon fill="none" stroke="#000000" points="100.5,-78 100.5,-130 396.5,-130 396.5,-78 100.5,-78"/>
</g>
<g id="clust6" class="cluster">
<title>cluster_CustomFormlyModule_exports</title>
<polygon fill="none" stroke="#000000" points="96.5,-208 96.5,-260 399.5,-260 399.5,-208 96.5,-208"/>
</g>
<!-- VariableComponent -->
<g id="node1" class="node">
<title>VariableComponent</title>
<polygon fill="#ffffb3" stroke="#000000" points="388.0255,-122 258.9745,-122 258.9745,-86 388.0255,-86 388.0255,-122"/>
<text text-anchor="middle" x="323.5" y="-99.8" font-family="Times,serif" font-size="14.00" fill="#000000">VariableComponent</text>
</g>
<!-- CustomFormlyModule -->
<g id="node3" class="node">
<title>CustomFormlyModule</title>
<polygon fill="#8dd3c7" stroke="#000000" points="247.837,-187 244.837,-191 223.837,-191 220.837,-187 103.163,-187 103.163,-151 247.837,-151 247.837,-187"/>
<text text-anchor="middle" x="175.5" y="-164.8" font-family="Times,serif" font-size="14.00" fill="#000000">CustomFormlyModule</text>
</g>
<!-- VariableComponent&#45;&gt;CustomFormlyModule -->
<g id="edge1" class="edge">
<title>VariableComponent&#45;&gt;CustomFormlyModule</title>
<path fill="none" stroke="#000000" d="M258.6225,-104C249.9905,-104 244.0502,-104 244.0502,-104 244.0502,-104 244.0502,-140.8939 244.0502,-140.8939"/>
<polygon fill="#000000" stroke="#000000" points="240.5502,-140.8938 244.0502,-150.8939 247.5502,-140.8939 240.5502,-140.8938"/>
</g>
<!-- IndicatorComponent -->
<g id="node2" class="node">
<title>IndicatorComponent</title>
<polygon fill="#ffffb3" stroke="#000000" points="240.3641,-122 108.6359,-122 108.6359,-86 240.3641,-86 240.3641,-122"/>
<text text-anchor="middle" x="174.5" y="-99.8" font-family="Times,serif" font-size="14.00" fill="#000000">IndicatorComponent</text>
</g>
<!-- IndicatorComponent&#45;&gt;CustomFormlyModule -->
<g id="edge2" class="edge">
<title>IndicatorComponent&#45;&gt;CustomFormlyModule</title>
<path fill="none" stroke="#000000" d="M174.5,-122.1061C174.5,-122.1061 174.5,-140.991 174.5,-140.991"/>
<polygon fill="#000000" stroke="#000000" points="171.0001,-140.9909 174.5,-150.991 178.0001,-140.991 171.0001,-140.9909"/>
</g>
<!-- VariableComponent  -->
<g id="node4" class="node">
<title>VariableComponent </title>
<polygon fill="#fb8072" stroke="#000000" points="391.0246,-252 257.9754,-252 257.9754,-216 391.0246,-216 391.0246,-252"/>
<text text-anchor="middle" x="324.5" y="-229.8" font-family="Times,serif" font-size="14.00" fill="#000000">VariableComponent </text>
</g>
<!-- CustomFormlyModule&#45;&gt;VariableComponent  -->
<g id="edge3" class="edge">
<title>CustomFormlyModule&#45;&gt;VariableComponent </title>
<path fill="none" stroke="#000000" stroke-dasharray="5,2" d="M243.9252,-187.1061C243.9252,-206.3391 243.9252,-234 243.9252,-234 243.9252,-234 247.9602,-234 247.9602,-234"/>
<polygon fill="#000000" stroke="#000000" points="247.9603,-237.5001 257.9602,-234 247.9602,-230.5001 247.9603,-237.5001"/>
</g>
<!-- IndicatorComponent  -->
<g id="node5" class="node">
<title>IndicatorComponent </title>
<polygon fill="#fb8072" stroke="#000000" points="240.3645,-252 104.6355,-252 104.6355,-216 240.3645,-216 240.3645,-252"/>
<text text-anchor="middle" x="172.5" y="-229.8" font-family="Times,serif" font-size="14.00" fill="#000000">IndicatorComponent </text>
</g>
<!-- CustomFormlyModule&#45;&gt;IndicatorComponent  -->
<g id="edge4" class="edge">
<title>CustomFormlyModule&#45;&gt;IndicatorComponent </title>
<path fill="none" stroke="#000000" stroke-dasharray="5,2" d="M172.5,-187.1061C172.5,-187.1061 172.5,-205.991 172.5,-205.991"/>
<polygon fill="#000000" stroke="#000000" points="169.0001,-205.9909 172.5,-215.991 176.0001,-205.991 169.0001,-205.9909"/>
</g>
</g>
</svg>
