<?xml version="1.0" encoding="UTF-8" standalone="no"?>
<!DOCTYPE svg PUBLIC "-//W3C//DTD SVG 1.1//EN"
 "http://www.w3.org/Graphics/SVG/1.1/DTD/svg11.dtd">
<!-- Generated by graphviz version 2.40.1 (20161225.0304)
 -->
<!-- Title: dependencies Pages: 1 -->
<svg width="5494pt" height="290pt"
 viewBox="0.00 0.00 5494.00 290.00" xmlns="http://www.w3.org/2000/svg" xmlns:xlink="http://www.w3.org/1999/xlink">
<g id="graph0" class="graph" transform="scale(1 1) rotate(0) translate(4 286)">
<title>dependencies</title>
<polygon fill="#ffffff" stroke="transparent" points="-4,4 -4,-286 5490,-286 5490,4 -4,4"/>
<text text-anchor="start" x="2722.0091" y="-42.4" font-family="sans-serif" font-weight="bold" font-size="14.00" fill="#000000">Legend</text>
<polygon fill="#ffffb3" stroke="transparent" points="2509,-10 2509,-30 2529,-30 2529,-10 2509,-10"/>
<text text-anchor="start" x="2532.629" y="-15.4" font-family="sans-serif" font-size="14.00" fill="#000000"> &#160;Declarations</text>
<polygon fill="#8dd3c7" stroke="transparent" points="2622,-10 2622,-30 2642,-30 2642,-10 2622,-10"/>
<text text-anchor="start" x="2645.7251" y="-15.4" font-family="sans-serif" font-size="14.00" fill="#000000"> &#160;Module</text>
<polygon fill="#80b1d3" stroke="transparent" points="2708,-10 2708,-30 2728,-30 2728,-10 2708,-10"/>
<text text-anchor="start" x="2731.7812" y="-15.4" font-family="sans-serif" font-size="14.00" fill="#000000"> &#160;Bootstrap</text>
<polygon fill="#fdb462" stroke="transparent" points="2805,-10 2805,-30 2825,-30 2825,-10 2805,-10"/>
<text text-anchor="start" x="2828.6732" y="-15.4" font-family="sans-serif" font-size="14.00" fill="#000000"> &#160;Providers</text>
<polygon fill="#fb8072" stroke="transparent" points="2901,-10 2901,-30 2921,-30 2921,-10 2901,-10"/>
<text text-anchor="start" x="2924.7258" y="-15.4" font-family="sans-serif" font-size="14.00" fill="#000000"> &#160;Exports</text>
<g id="clust1" class="cluster">
<title>cluster_AppModule</title>
<polygon fill="none" stroke="#000000" stroke-dasharray="1,5" points="639,-70 639,-274 3145,-274 3145,-70 639,-70"/>
</g>
<g id="clust2" class="cluster">
<title>cluster_AppModule_declarations</title>
<polygon fill="none" stroke="#000000" points="1896,-78 1896,-130 3137,-130 3137,-78 1896,-78"/>
</g>
<g id="clust11" class="cluster">
<title>cluster_AppModule_imports</title>
<polygon fill="none" stroke="#000000" points="647,-78 647,-130 954,-130 954,-78 647,-78"/>
</g>
<g id="clust13" class="cluster">
<title>cluster_AppModule_bootstrap</title>
<polygon fill="none" stroke="#000000" points="1847,-214 1847,-266 1971,-266 1971,-214 1847,-214"/>
</g>
<g id="clust14" class="cluster">
<title>cluster_AppModule_providers</title>
<polygon fill="none" stroke="#000000" points="962,-78 962,-130 1888,-130 1888,-78 962,-78"/>
</g>
<g id="clust21" class="cluster">
<title>cluster_ConceptModule</title>
<polygon fill="none" stroke="#000000" stroke-dasharray="1,5" points="3153,-70 3153,-198 4083,-198 4083,-70 3153,-70"/>
</g>
<g id="clust22" class="cluster">
<title>cluster_ConceptModule_declarations</title>
<polygon fill="none" stroke="#000000" points="3505,-78 3505,-130 4075,-130 4075,-78 3505,-78"/>
</g>
<g id="clust26" class="cluster">
<title>cluster_ConceptModule_imports</title>
<polygon fill="none" stroke="#000000" points="3329,-78 3329,-130 3497,-130 3497,-78 3329,-78"/>
</g>
<g id="clust29" class="cluster">
<title>cluster_ConceptModule_providers</title>
<polygon fill="none" stroke="#000000" points="3161,-78 3161,-130 3321,-130 3321,-78 3161,-78"/>
</g>
<g id="clust36" class="cluster">
<title>cluster_CustomFormlyModule</title>
<polygon fill="none" stroke="#000000" stroke-dasharray="1,5" points="8,-138 8,-206 631,-206 631,-138 8,-138"/>
</g>
<g id="clust37" class="cluster">
<title>cluster_CustomFormlyModule_declarations</title>
<polygon fill="none" stroke="#000000" points="327,-146 327,-198 623,-198 623,-146 327,-146"/>
</g>
<g id="clust41" class="cluster">
<title>cluster_CustomFormlyModule_exports</title>
<polygon fill="none" stroke="#000000" points="16,-146 16,-198 319,-198 319,-146 16,-146"/>
</g>
<g id="clust44" class="cluster">
<title>cluster_UserModule</title>
<polygon fill="none" stroke="#000000" stroke-dasharray="1,5" points="4091,-70 4091,-198 4569,-198 4569,-70 4091,-70"/>
</g>
<g id="clust45" class="cluster">
<title>cluster_UserModule_declarations</title>
<polygon fill="none" stroke="#000000" points="4395,-78 4395,-130 4561,-130 4561,-78 4395,-78"/>
</g>
<g id="clust47" class="cluster">
<title>cluster_UserModule_imports</title>
<polygon fill="none" stroke="#000000" points="4239,-78 4239,-130 4387,-130 4387,-78 4239,-78"/>
</g>
<g id="clust50" class="cluster">
<title>cluster_UserModule_providers</title>
<polygon fill="none" stroke="#000000" points="4099,-78 4099,-130 4231,-130 4231,-78 4099,-78"/>
</g>
<g id="clust57" class="cluster">
<title>cluster_ValuationModule</title>
<polygon fill="none" stroke="#000000" stroke-dasharray="1,5" points="4577,-70 4577,-198 5478,-198 5478,-70 4577,-70"/>
</g>
<g id="clust58" class="cluster">
<title>cluster_ValuationModule_declarations</title>
<polygon fill="none" stroke="#000000" points="4769,-78 4769,-130 5470,-130 5470,-78 4769,-78"/>
</g>
<g id="clust63" class="cluster">
<title>cluster_ValuationModule_imports</title>
<polygon fill="none" stroke="#000000" points="4585,-78 4585,-130 4761,-130 4761,-78 4585,-78"/>
</g>
<!-- AppComponent -->
<g id="node1" class="node">
<title>AppComponent</title>
<polygon fill="#ffffb3" stroke="#000000" points="2853.9399,-122 2748.0601,-122 2748.0601,-86 2853.9399,-86 2853.9399,-122"/>
<text text-anchor="middle" x="2801" y="-99.8" font-family="Times,serif" font-size="14.00" fill="#000000">AppComponent</text>
</g>
<!-- AppModule -->
<g id="node9" class="node">
<title>AppModule</title>
<polygon fill="#8dd3c7" stroke="#000000" points="1950.6571,-190 1947.6571,-194 1926.6571,-194 1923.6571,-190 1867.3429,-190 1867.3429,-154 1950.6571,-154 1950.6571,-190"/>
<text text-anchor="middle" x="1909" y="-167.8" font-family="Times,serif" font-size="14.00" fill="#000000">AppModule</text>
</g>
<!-- AppComponent&#45;&gt;AppModule -->
<g id="edge1" class="edge">
<title>AppComponent&#45;&gt;AppModule</title>
<path fill="none" stroke="#000000" d="M2801,-122.0267C2801,-142.7672 2801,-174 2801,-174 2801,-174 1960.8266,-174 1960.8266,-174"/>
<polygon fill="#000000" stroke="#000000" points="1960.8266,-170.5001 1950.8266,-174 1960.8266,-177.5001 1960.8266,-170.5001"/>
</g>
<!-- AppfooterComponent -->
<g id="node2" class="node">
<title>AppfooterComponent</title>
<polygon fill="#ffffb3" stroke="#000000" points="2730.3655,-122 2591.6345,-122 2591.6345,-86 2730.3655,-86 2730.3655,-122"/>
<text text-anchor="middle" x="2661" y="-99.8" font-family="Times,serif" font-size="14.00" fill="#000000">AppfooterComponent</text>
</g>
<!-- AppfooterComponent&#45;&gt;AppModule -->
<g id="edge2" class="edge">
<title>AppfooterComponent&#45;&gt;AppModule</title>
<path fill="none" stroke="#000000" d="M2661,-122.0348C2661,-141.5762 2661,-170 2661,-170 2661,-170 1960.7717,-170 1960.7717,-170"/>
<polygon fill="#000000" stroke="#000000" points="1960.7717,-166.5001 1950.7717,-170 1960.7716,-173.5001 1960.7717,-166.5001"/>
</g>
<!-- AppheaderComponent -->
<g id="node3" class="node">
<title>AppheaderComponent</title>
<polygon fill="#ffffb3" stroke="#000000" points="2573.2436,-122 2430.7564,-122 2430.7564,-86 2573.2436,-86 2573.2436,-122"/>
<text text-anchor="middle" x="2502" y="-99.8" font-family="Times,serif" font-size="14.00" fill="#000000">AppheaderComponent</text>
</g>
<!-- AppheaderComponent&#45;&gt;AppModule -->
<g id="edge3" class="edge">
<title>AppheaderComponent&#45;&gt;AppModule</title>
<path fill="none" stroke="#000000" d="M2502,-122.2667C2502,-140.5552 2502,-166 2502,-166 2502,-166 1960.6986,-166 1960.6986,-166"/>
<polygon fill="#000000" stroke="#000000" points="1960.6986,-162.5001 1950.6986,-166 1960.6986,-169.5001 1960.6986,-162.5001"/>
</g>
<!-- AppmenuComponent -->
<g id="node4" class="node">
<title>AppmenuComponent</title>
<polygon fill="#ffffb3" stroke="#000000" points="2412.045,-122 2275.955,-122 2275.955,-86 2412.045,-86 2412.045,-122"/>
<text text-anchor="middle" x="2344" y="-99.8" font-family="Times,serif" font-size="14.00" fill="#000000">AppmenuComponent</text>
</g>
<!-- AppmenuComponent&#45;&gt;AppModule -->
<g id="edge4" class="edge">
<title>AppmenuComponent&#45;&gt;AppModule</title>
<path fill="none" stroke="#000000" d="M2344,-122.0336C2344,-139.0597 2344,-162 2344,-162 2344,-162 1960.7096,-162 1960.7096,-162"/>
<polygon fill="#000000" stroke="#000000" points="1960.7097,-158.5001 1950.7096,-162 1960.7096,-165.5001 1960.7097,-158.5001"/>
</g>
<!-- AppsettingsComponent -->
<g id="node5" class="node">
<title>AppsettingsComponent</title>
<polygon fill="#ffffb3" stroke="#000000" points="2258.2148,-122 2109.7852,-122 2109.7852,-86 2258.2148,-86 2258.2148,-122"/>
<text text-anchor="middle" x="2184" y="-99.8" font-family="Times,serif" font-size="14.00" fill="#000000">AppsettingsComponent</text>
</g>
<!-- AppsettingsComponent&#45;&gt;AppModule -->
<g id="edge5" class="edge">
<title>AppsettingsComponent&#45;&gt;AppModule</title>
<path fill="none" stroke="#000000" d="M2184,-122.2819C2184,-137.9478 2184,-158 2184,-158 2184,-158 1960.7666,-158 1960.7666,-158"/>
<polygon fill="#000000" stroke="#000000" points="1960.7666,-154.5001 1950.7666,-158 1960.7665,-161.5001 1960.7666,-154.5001"/>
</g>
<!-- SpreadsheetLoaderComponent -->
<g id="node6" class="node">
<title>SpreadsheetLoaderComponent</title>
<polygon fill="#ffffb3" stroke="#000000" points="2092.112,-122 1903.888,-122 1903.888,-86 2092.112,-86 2092.112,-122"/>
<text text-anchor="middle" x="1998" y="-99.8" font-family="Times,serif" font-size="14.00" fill="#000000">SpreadsheetLoaderComponent</text>
</g>
<!-- SpreadsheetLoaderComponent&#45;&gt;AppModule -->
<g id="edge6" class="edge">
<title>SpreadsheetLoaderComponent&#45;&gt;AppModule</title>
<path fill="none" stroke="#000000" d="M1927.2612,-122.2228C1927.2612,-122.2228 1927.2612,-143.7269 1927.2612,-143.7269"/>
<polygon fill="#000000" stroke="#000000" points="1923.7613,-143.7269 1927.2612,-153.7269 1930.7613,-143.727 1923.7613,-143.7269"/>
</g>
<!-- AlertComponent -->
<g id="node7" class="node">
<title>AlertComponent</title>
<polygon fill="#ffffb3" stroke="#000000" points="3129.0954,-122 3018.9046,-122 3018.9046,-86 3129.0954,-86 3129.0954,-122"/>
<text text-anchor="middle" x="3074" y="-99.8" font-family="Times,serif" font-size="14.00" fill="#000000">AlertComponent</text>
</g>
<!-- AlertComponent&#45;&gt;AppModule -->
<g id="edge7" class="edge">
<title>AlertComponent&#45;&gt;AppModule</title>
<path fill="none" stroke="#000000" d="M3074,-122.0908C3074,-145.1328 3074,-182 3074,-182 3074,-182 1960.8065,-182 1960.8065,-182"/>
<polygon fill="#000000" stroke="#000000" points="1960.8065,-178.5001 1950.8065,-182 1960.8064,-185.5001 1960.8065,-178.5001"/>
</g>
<!-- ConfirmationDialog -->
<g id="node8" class="node">
<title>ConfirmationDialog</title>
<polygon fill="#ffffb3" stroke="#000000" points="3000.538,-122 2871.462,-122 2871.462,-86 3000.538,-86 3000.538,-122"/>
<text text-anchor="middle" x="2936" y="-99.8" font-family="Times,serif" font-size="14.00" fill="#000000">ConfirmationDialog</text>
</g>
<!-- ConfirmationDialog&#45;&gt;AppModule -->
<g id="edge8" class="edge">
<title>ConfirmationDialog&#45;&gt;AppModule</title>
<path fill="none" stroke="#000000" d="M2936,-122.2921C2936,-144.2057 2936,-178 2936,-178 2936,-178 1960.8524,-178 1960.8524,-178"/>
<polygon fill="#000000" stroke="#000000" points="1960.8524,-174.5001 1950.8524,-178 1960.8523,-181.5001 1960.8524,-174.5001"/>
</g>
<!-- AppComponent  -->
<g id="node12" class="node">
<title>AppComponent </title>
<polygon fill="#80b1d3" stroke="#000000" points="1963.439,-258 1854.561,-258 1854.561,-222 1963.439,-222 1963.439,-258"/>
<text text-anchor="middle" x="1909" y="-235.8" font-family="Times,serif" font-size="14.00" fill="#000000">AppComponent </text>
</g>
<!-- AppModule&#45;&gt;AppComponent  -->
<g id="edge11" class="edge">
<title>AppModule&#45;&gt;AppComponent </title>
<path fill="none" stroke="#000000" stroke-dasharray="1,5" d="M1909,-190.2228C1909,-190.2228 1909,-211.7269 1909,-211.7269"/>
<polygon fill="#000000" stroke="#000000" points="1905.5001,-211.7269 1909,-221.7269 1912.5001,-211.727 1905.5001,-211.7269"/>
</g>
<!-- AppRoutingModule -->
<g id="node10" class="node">
<title>AppRoutingModule</title>
<polygon fill="#8dd3c7" stroke="#000000" points="946.2744,-122 943.2744,-126 922.2744,-126 919.2744,-122 817.7256,-122 817.7256,-86 946.2744,-86 946.2744,-122"/>
<text text-anchor="middle" x="882" y="-99.8" font-family="Times,serif" font-size="14.00" fill="#000000">AppRoutingModule</text>
</g>
<!-- AppRoutingModule&#45;&gt;AppModule -->
<g id="edge9" class="edge">
<title>AppRoutingModule&#45;&gt;AppModule</title>
<path fill="none" stroke="#000000" d="M882,-122.2479C882,-145.0179 882,-181 882,-181 882,-181 1857.1476,-181 1857.1476,-181"/>
<polygon fill="#000000" stroke="#000000" points="1857.1477,-184.5001 1867.1476,-181 1857.1476,-177.5001 1857.1477,-184.5001"/>
</g>
<!-- CustomFormlyModule -->
<g id="node11" class="node">
<title>CustomFormlyModule</title>
<polygon fill="#8dd3c7" stroke="#000000" points="799.337,-122 796.337,-126 775.337,-126 772.337,-122 654.663,-122 654.663,-86 799.337,-86 799.337,-122"/>
<text text-anchor="middle" x="727" y="-99.8" font-family="Times,serif" font-size="14.00" fill="#000000">CustomFormlyModule</text>
</g>
<!-- CustomFormlyModule&#45;&gt;AppModule -->
<g id="edge10" class="edge">
<title>CustomFormlyModule&#45;&gt;AppModule</title>
<path fill="none" stroke="#000000" d="M770.301,-122.1985C770.301,-146.3563 770.301,-186 770.301,-186 770.301,-186 1857.1226,-186 1857.1226,-186"/>
<polygon fill="#000000" stroke="#000000" points="1857.1227,-189.5001 1867.1226,-186 1857.1226,-182.5001 1857.1227,-189.5001"/>
</g>
<!-- ConceptModule -->
<g id="node22" class="node">
<title>ConceptModule</title>
<polygon fill="#8dd3c7" stroke="#000000" points="3560.2064,-190 3557.2064,-194 3536.2064,-194 3533.2064,-190 3453.7936,-190 3453.7936,-154 3560.2064,-154 3560.2064,-190"/>
<text text-anchor="middle" x="3507" y="-167.8" font-family="Times,serif" font-size="14.00" fill="#000000">ConceptModule</text>
</g>
<!-- CustomFormlyModule&#45;&gt;ConceptModule -->
<g id="edge22" class="edge">
<title>CustomFormlyModule&#45;&gt;ConceptModule</title>
<path fill="none" stroke="#000000" d="M683.699,-122.0555C683.699,-133.439 683.699,-146 683.699,-146 683.699,-146 3465.4853,-146 3465.4853,-146 3465.4853,-146 3465.4853,-146.7942 3465.4853,-146.7942"/>
<polygon fill="#000000" stroke="#000000" points="3461.9854,-143.9421 3465.4853,-153.9421 3468.9854,-143.9422 3461.9854,-143.9421"/>
</g>
<!-- VariableComponent  -->
<g id="node27" class="node">
<title>VariableComponent </title>
<polygon fill="#fb8072" stroke="#000000" points="310.5246,-190 177.4754,-190 177.4754,-154 310.5246,-154 310.5246,-190"/>
<text text-anchor="middle" x="244" y="-167.8" font-family="Times,serif" font-size="14.00" fill="#000000">VariableComponent </text>
</g>
<!-- CustomFormlyModule&#45;&gt;VariableComponent  -->
<g id="edge26" class="edge">
<title>CustomFormlyModule&#45;&gt;VariableComponent </title>
<path fill="none" stroke="#000000" stroke-dasharray="5,2" d="M654.69,-101C519.9492,-101 244,-101 244,-101 244,-101 244,-143.7157 244,-143.7157"/>
<polygon fill="#000000" stroke="#000000" points="240.5001,-143.7157 244,-153.7157 247.5001,-143.7158 240.5001,-143.7157"/>
</g>
<!-- IndicatorComponent  -->
<g id="node28" class="node">
<title>IndicatorComponent </title>
<polygon fill="#fb8072" stroke="#000000" points="159.8645,-190 24.1355,-190 24.1355,-154 159.8645,-154 159.8645,-190"/>
<text text-anchor="middle" x="92" y="-167.8" font-family="Times,serif" font-size="14.00" fill="#000000">IndicatorComponent </text>
</g>
<!-- CustomFormlyModule&#45;&gt;IndicatorComponent  -->
<g id="edge27" class="edge">
<title>CustomFormlyModule&#45;&gt;IndicatorComponent </title>
<path fill="none" stroke="#000000" stroke-dasharray="5,2" d="M654.7757,-94C488.3427,-94 92,-94 92,-94 92,-94 92,-143.9092 92,-143.9092"/>
<polygon fill="#000000" stroke="#000000" points="88.5001,-143.9091 92,-153.9092 95.5001,-143.9092 88.5001,-143.9091"/>
</g>
<!-- UserModule -->
<g id="node30" class="node">
<title>UserModule</title>
<polygon fill="#8dd3c7" stroke="#000000" points="4281.9762,-190 4278.9762,-194 4257.9762,-194 4254.9762,-190 4196.0238,-190 4196.0238,-154 4281.9762,-154 4281.9762,-190"/>
<text text-anchor="middle" x="4239" y="-167.8" font-family="Times,serif" font-size="14.00" fill="#000000">UserModule</text>
</g>
<!-- CustomFormlyModule&#45;&gt;UserModule -->
<g id="edge30" class="edge">
<title>CustomFormlyModule&#45;&gt;UserModule</title>
<path fill="none" stroke="#000000" d="M712.5663,-122.1944C712.5663,-130.2782 712.5663,-138 712.5663,-138 712.5663,-138 4205.0814,-138 4205.0814,-138 4205.0814,-138 4205.0814,-143.8056 4205.0814,-143.8056"/>
<polygon fill="#000000" stroke="#000000" points="4201.5815,-143.8055 4205.0814,-153.8056 4208.5815,-143.8056 4201.5815,-143.8055"/>
</g>
<!-- ValuationModule -->
<g id="node37" class="node">
<title>ValuationModule</title>
<polygon fill="#8dd3c7" stroke="#000000" points="5006.2577,-190 5003.2577,-194 4982.2577,-194 4979.2577,-190 4891.7423,-190 4891.7423,-154 5006.2577,-154 5006.2577,-190"/>
<text text-anchor="middle" x="4949" y="-167.8" font-family="Times,serif" font-size="14.00" fill="#000000">ValuationModule</text>
</g>
<!-- CustomFormlyModule&#45;&gt;ValuationModule -->
<g id="edge37" class="edge">
<title>CustomFormlyModule&#45;&gt;ValuationModule</title>
<path fill="none" stroke="#000000" d="M741.4337,-122.0579C741.4337,-126.4945 741.4337,-130 741.4337,-130 741.4337,-130 4906.7239,-130 4906.7239,-130 4906.7239,-130 4906.7239,-143.9445 4906.7239,-143.9445"/>
<polygon fill="#000000" stroke="#000000" points="4903.224,-143.9444 4906.7239,-153.9445 4910.224,-143.9445 4903.224,-143.9444"/>
</g>
<!-- AlertService -->
<g id="node13" class="node">
<title>AlertService</title>
<ellipse fill="#fdb462" stroke="#000000" cx="1221" cy="-104" rx="59.6646" ry="18"/>
<text text-anchor="middle" x="1221" y="-99.8" font-family="Times,serif" font-size="14.00" fill="#000000">AlertService</text>
</g>
<!-- AlertService&#45;&gt;AppModule -->
<g id="edge12" class="edge">
<title>AlertService&#45;&gt;AppModule</title>
<path fill="none" stroke="#000000" d="M1221,-122.2228C1221,-142.3652 1221,-172 1221,-172 1221,-172 1857.2554,-172 1857.2554,-172"/>
<polygon fill="#000000" stroke="#000000" points="1857.2554,-175.5001 1867.2554,-172 1857.2553,-168.5001 1857.2554,-175.5001"/>
</g>
<!-- SpreadsheetService -->
<g id="node14" class="node">
<title>SpreadsheetService</title>
<ellipse fill="#fdb462" stroke="#000000" cx="1057" cy="-104" rx="86.7933" ry="18"/>
<text text-anchor="middle" x="1057" y="-99.8" font-family="Times,serif" font-size="14.00" fill="#000000">SpreadsheetService</text>
</g>
<!-- SpreadsheetService&#45;&gt;AppModule -->
<g id="edge13" class="edge">
<title>SpreadsheetService&#45;&gt;AppModule</title>
<path fill="none" stroke="#000000" d="M1057,-122.0449C1057,-143.6623 1057,-177 1057,-177 1057,-177 1857.3295,-177 1857.3295,-177"/>
<polygon fill="#000000" stroke="#000000" points="1857.3295,-180.5001 1867.3295,-177 1857.3295,-173.5001 1857.3295,-180.5001"/>
</g>
<!-- TypeService -->
<g id="node15" class="node">
<title>TypeService</title>
<ellipse fill="#fdb462" stroke="#000000" cx="1820" cy="-104" rx="59.6704" ry="18"/>
<text text-anchor="middle" x="1820" y="-99.8" font-family="Times,serif" font-size="14.00" fill="#000000">TypeService</text>
</g>
<!-- TypeService&#45;&gt;AppModule -->
<g id="edge14" class="edge">
<title>TypeService&#45;&gt;AppModule</title>
<path fill="none" stroke="#000000" d="M1873.5034,-112.0675C1873.5034,-112.0675 1873.5034,-143.7228 1873.5034,-143.7228"/>
<polygon fill="#000000" stroke="#000000" points="1870.0035,-143.7227 1873.5034,-153.7228 1877.0035,-143.7228 1870.0035,-143.7227"/>
</g>
<!-- ModelService -->
<g id="node16" class="node">
<title>ModelService</title>
<ellipse fill="#fdb462" stroke="#000000" cx="1677" cy="-104" rx="65.4072" ry="18"/>
<text text-anchor="middle" x="1677" y="-99.8" font-family="Times,serif" font-size="14.00" fill="#000000">ModelService</text>
</g>
<!-- ModelService&#45;&gt;AppModule -->
<g id="edge15" class="edge">
<title>ModelService&#45;&gt;AppModule</title>
<path fill="none" stroke="#000000" d="M1677,-122.0091C1677,-138.0494 1677,-159 1677,-159 1677,-159 1857.2551,-159 1857.2551,-159"/>
<polygon fill="#000000" stroke="#000000" points="1857.2551,-162.5001 1867.2551,-159 1857.2551,-155.5001 1857.2551,-162.5001"/>
</g>
<!-- MathService -->
<g id="node17" class="node">
<title>MathService</title>
<ellipse fill="#fdb462" stroke="#000000" cx="1533" cy="-104" rx="60.2499" ry="18"/>
<text text-anchor="middle" x="1533" y="-99.8" font-family="Times,serif" font-size="14.00" fill="#000000">MathService</text>
</g>
<!-- MathService&#45;&gt;AppModule -->
<g id="edge16" class="edge">
<title>MathService&#45;&gt;AppModule</title>
<path fill="none" stroke="#000000" d="M1533,-122.0225C1533,-139.3734 1533,-163 1533,-163 1533,-163 1857.3248,-163 1857.3248,-163"/>
<polygon fill="#000000" stroke="#000000" points="1857.3248,-166.5001 1867.3248,-163 1857.3248,-159.5001 1857.3248,-166.5001"/>
</g>
<!-- ValuationService -->
<g id="node18" class="node">
<title>ValuationService</title>
<ellipse fill="#fdb462" stroke="#000000" cx="1377" cy="-104" rx="78.1462" ry="18"/>
<text text-anchor="middle" x="1377" y="-99.8" font-family="Times,serif" font-size="14.00" fill="#000000">ValuationService</text>
</g>
<!-- ValuationService&#45;&gt;AppModule -->
<g id="edge17" class="edge">
<title>ValuationService&#45;&gt;AppModule</title>
<path fill="none" stroke="#000000" d="M1377,-122.1686C1377,-141.0898 1377,-168 1377,-168 1377,-168 1857.2549,-168 1857.2549,-168"/>
<polygon fill="#000000" stroke="#000000" points="1857.2549,-171.5001 1867.2549,-168 1857.2548,-164.5001 1857.2549,-171.5001"/>
</g>
<!-- VariableConceptComponent -->
<g id="node19" class="node">
<title>VariableConceptComponent</title>
<polygon fill="#ffffb3" stroke="#000000" points="3885.1811,-122 3708.8189,-122 3708.8189,-86 3885.1811,-86 3885.1811,-122"/>
<text text-anchor="middle" x="3797" y="-99.8" font-family="Times,serif" font-size="14.00" fill="#000000">VariableConceptComponent</text>
</g>
<!-- VariableConceptComponent&#45;&gt;ConceptModule -->
<g id="edge18" class="edge">
<title>VariableConceptComponent&#45;&gt;ConceptModule</title>
<path fill="none" stroke="#000000" d="M3797,-122.2667C3797,-140.5552 3797,-166 3797,-166 3797,-166 3570.1905,-166 3570.1905,-166"/>
<polygon fill="#000000" stroke="#000000" points="3570.1905,-162.5001 3560.1905,-166 3570.1904,-169.5001 3570.1905,-162.5001"/>
</g>
<!-- IndicatorConceptComponent -->
<g id="node20" class="node">
<title>IndicatorConceptComponent</title>
<polygon fill="#ffffb3" stroke="#000000" points="3691.021,-122 3512.979,-122 3512.979,-86 3691.021,-86 3691.021,-122"/>
<text text-anchor="middle" x="3602" y="-99.8" font-family="Times,serif" font-size="14.00" fill="#000000">IndicatorConceptComponent</text>
</g>
<!-- IndicatorConceptComponent&#45;&gt;ConceptModule -->
<g id="edge19" class="edge">
<title>IndicatorConceptComponent&#45;&gt;ConceptModule</title>
<path fill="none" stroke="#000000" d="M3536.4215,-122.2228C3536.4215,-122.2228 3536.4215,-143.7269 3536.4215,-143.7269"/>
<polygon fill="#000000" stroke="#000000" points="3532.9215,-143.7269 3536.4215,-153.7269 3539.9215,-143.727 3532.9215,-143.7269"/>
</g>
<!-- ModelConceptComponent -->
<g id="node21" class="node">
<title>ModelConceptComponent</title>
<polygon fill="#ffffb3" stroke="#000000" points="4067.0392,-122 3902.9608,-122 3902.9608,-86 4067.0392,-86 4067.0392,-122"/>
<text text-anchor="middle" x="3985" y="-99.8" font-family="Times,serif" font-size="14.00" fill="#000000">ModelConceptComponent</text>
</g>
<!-- ModelConceptComponent&#45;&gt;ConceptModule -->
<g id="edge20" class="edge">
<title>ModelConceptComponent&#45;&gt;ConceptModule</title>
<path fill="none" stroke="#000000" d="M3985,-122.2921C3985,-144.2057 3985,-178 3985,-178 3985,-178 3570.4413,-178 3570.4413,-178"/>
<polygon fill="#000000" stroke="#000000" points="3570.4413,-174.5001 3560.4413,-178 3570.4413,-181.5001 3570.4413,-174.5001"/>
</g>
<!-- ConceptRoutingModule -->
<g id="node23" class="node">
<title>ConceptRoutingModule</title>
<polygon fill="#8dd3c7" stroke="#000000" points="3488.8243,-122 3485.8243,-126 3464.8243,-126 3461.8243,-122 3337.1757,-122 3337.1757,-86 3488.8243,-86 3488.8243,-122"/>
<text text-anchor="middle" x="3413" y="-99.8" font-family="Times,serif" font-size="14.00" fill="#000000">ConceptRoutingModule</text>
</g>
<!-- ConceptRoutingModule&#45;&gt;ConceptModule -->
<g id="edge21" class="edge">
<title>ConceptRoutingModule&#45;&gt;ConceptModule</title>
<path fill="none" stroke="#000000" d="M3477.0736,-122.2228C3477.0736,-122.2228 3477.0736,-143.7269 3477.0736,-143.7269"/>
<polygon fill="#000000" stroke="#000000" points="3473.5737,-143.7269 3477.0736,-153.7269 3480.5737,-143.727 3473.5737,-143.7269"/>
</g>
<!-- ConceptService -->
<g id="node24" class="node">
<title>ConceptService</title>
<ellipse fill="#fdb462" stroke="#000000" cx="3241" cy="-104" rx="72.3497" ry="18"/>
<text text-anchor="middle" x="3241" y="-99.8" font-family="Times,serif" font-size="14.00" fill="#000000">ConceptService</text>
</g>
<!-- ConceptService&#45;&gt;ConceptModule -->
<g id="edge23" class="edge">
<title>ConceptService&#45;&gt;ConceptModule</title>
<path fill="none" stroke="#000000" d="M3241,-122.1985C3241,-146.3563 3241,-186 3241,-186 3241,-186 3443.8102,-186 3443.8102,-186"/>
<polygon fill="#000000" stroke="#000000" points="3443.8103,-189.5001 3453.8102,-186 3443.8102,-182.5001 3443.8103,-189.5001"/>
</g>
<!-- VariableComponent -->
<g id="node25" class="node">
<title>VariableComponent</title>
<polygon fill="#ffffb3" stroke="#000000" points="614.5255,-190 485.4745,-190 485.4745,-154 614.5255,-154 614.5255,-190"/>
<text text-anchor="middle" x="550" y="-167.8" font-family="Times,serif" font-size="14.00" fill="#000000">VariableComponent</text>
</g>
<!-- VariableComponent&#45;&gt;CustomFormlyModule -->
<g id="edge24" class="edge">
<title>VariableComponent&#45;&gt;CustomFormlyModule</title>
<path fill="none" stroke="#000000" d="M550,-153.9648C550,-137.2656 550,-115 550,-115 550,-115 644.752,-115 644.752,-115"/>
<polygon fill="#000000" stroke="#000000" points="644.7521,-118.5001 654.752,-115 644.752,-111.5001 644.7521,-118.5001"/>
</g>
<!-- IndicatorComponent -->
<g id="node26" class="node">
<title>IndicatorComponent</title>
<polygon fill="#ffffb3" stroke="#000000" points="466.8641,-190 335.1359,-190 335.1359,-154 466.8641,-154 466.8641,-190"/>
<text text-anchor="middle" x="401" y="-167.8" font-family="Times,serif" font-size="14.00" fill="#000000">IndicatorComponent</text>
</g>
<!-- IndicatorComponent&#45;&gt;CustomFormlyModule -->
<g id="edge25" class="edge">
<title>IndicatorComponent&#45;&gt;CustomFormlyModule</title>
<path fill="none" stroke="#000000" d="M401,-153.8314C401,-134.9102 401,-108 401,-108 401,-108 644.65,-108 644.65,-108"/>
<polygon fill="#000000" stroke="#000000" points="644.6501,-111.5001 654.65,-108 644.65,-104.5001 644.6501,-111.5001"/>
</g>
<!-- UserModelsComponent -->
<g id="node29" class="node">
<title>UserModelsComponent</title>
<polygon fill="#ffffb3" stroke="#000000" points="4552.7534,-122 4403.2466,-122 4403.2466,-86 4552.7534,-86 4552.7534,-122"/>
<text text-anchor="middle" x="4478" y="-99.8" font-family="Times,serif" font-size="14.00" fill="#000000">UserModelsComponent</text>
</g>
<!-- UserModelsComponent&#45;&gt;UserModule -->
<g id="edge28" class="edge">
<title>UserModelsComponent&#45;&gt;UserModule</title>
<path fill="none" stroke="#000000" d="M4478,-122.2921C4478,-144.2057 4478,-178 4478,-178 4478,-178 4292.0044,-178 4292.0044,-178"/>
<polygon fill="#000000" stroke="#000000" points="4292.0045,-174.5001 4282.0044,-178 4292.0044,-181.5001 4292.0045,-174.5001"/>
</g>
<!-- UserRoutingModule -->
<g id="node31" class="node">
<title>UserRoutingModule</title>
<polygon fill="#8dd3c7" stroke="#000000" points="4378.594,-122 4375.594,-126 4354.594,-126 4351.594,-122 4247.406,-122 4247.406,-86 4378.594,-86 4378.594,-122"/>
<text text-anchor="middle" x="4313" y="-99.8" font-family="Times,serif" font-size="14.00" fill="#000000">UserRoutingModule</text>
</g>
<!-- UserRoutingModule&#45;&gt;UserModule -->
<g id="edge29" class="edge">
<title>UserRoutingModule&#45;&gt;UserModule</title>
<path fill="none" stroke="#000000" d="M4264.7206,-122.2228C4264.7206,-122.2228 4264.7206,-143.7269 4264.7206,-143.7269"/>
<polygon fill="#000000" stroke="#000000" points="4261.2206,-143.7269 4264.7206,-153.7269 4268.2206,-143.727 4261.2206,-143.7269"/>
</g>
<!-- UserService -->
<g id="node32" class="node">
<title>UserService</title>
<ellipse fill="#fdb462" stroke="#000000" cx="4165" cy="-104" rx="58.4415" ry="18"/>
<text text-anchor="middle" x="4165" y="-99.8" font-family="Times,serif" font-size="14.00" fill="#000000">UserService</text>
</g>
<!-- UserService&#45;&gt;UserModule -->
<g id="edge31" class="edge">
<title>UserService&#45;&gt;UserModule</title>
<path fill="none" stroke="#000000" d="M4214.1509,-113.7427C4214.1509,-113.7427 4214.1509,-143.8359 4214.1509,-143.8359"/>
<polygon fill="#000000" stroke="#000000" points="4210.651,-143.8358 4214.1509,-153.8359 4217.651,-143.8359 4210.651,-143.8358"/>
</g>
<!-- ModelValuationComponent -->
<g id="node33" class="node">
<title>ModelValuationComponent</title>
<polygon fill="#ffffb3" stroke="#000000" points="5127.5898,-122 4954.4102,-122 4954.4102,-86 5127.5898,-86 5127.5898,-122"/>
<text text-anchor="middle" x="5041" y="-99.8" font-family="Times,serif" font-size="14.00" fill="#000000">ModelValuationComponent</text>
</g>
<!-- ModelValuationComponent&#45;&gt;ValuationModule -->
<g id="edge32" class="edge">
<title>ModelValuationComponent&#45;&gt;ValuationModule</title>
<path fill="none" stroke="#000000" d="M4980.4169,-122.2228C4980.4169,-122.2228 4980.4169,-143.7269 4980.4169,-143.7269"/>
<polygon fill="#000000" stroke="#000000" points="4976.917,-143.7269 4980.4169,-153.7269 4983.917,-143.727 4976.917,-143.7269"/>
</g>
<!-- VariableFormComponent -->
<g id="node34" class="node">
<title>VariableFormComponent</title>
<polygon fill="#ffffb3" stroke="#000000" points="4936.8585,-122 4777.1415,-122 4777.1415,-86 4936.8585,-86 4936.8585,-122"/>
<text text-anchor="middle" x="4857" y="-99.8" font-family="Times,serif" font-size="14.00" fill="#000000">VariableFormComponent</text>
</g>
<!-- VariableFormComponent&#45;&gt;ValuationModule -->
<g id="edge33" class="edge">
<title>VariableFormComponent&#45;&gt;ValuationModule</title>
<path fill="none" stroke="#000000" d="M4921.8266,-122.2228C4921.8266,-122.2228 4921.8266,-143.7269 4921.8266,-143.7269"/>
<polygon fill="#000000" stroke="#000000" points="4918.3267,-143.7269 4921.8266,-153.7269 4925.3267,-143.727 4918.3267,-143.7269"/>
</g>
<!-- ValuationComponent -->
<g id="node35" class="node">
<title>ValuationComponent</title>
<polygon fill="#ffffb3" stroke="#000000" points="5462.0408,-122 5325.9592,-122 5325.9592,-86 5462.0408,-86 5462.0408,-122"/>
<text text-anchor="middle" x="5394" y="-99.8" font-family="Times,serif" font-size="14.00" fill="#000000">ValuationComponent</text>
</g>
<!-- ValuationComponent&#45;&gt;ValuationModule -->
<g id="edge34" class="edge">
<title>ValuationComponent&#45;&gt;ValuationModule</title>
<path fill="none" stroke="#000000" d="M5394,-122.2921C5394,-144.2057 5394,-178 5394,-178 5394,-178 5016.265,-178 5016.265,-178"/>
<polygon fill="#000000" stroke="#000000" points="5016.265,-174.5001 5006.265,-178 5016.2649,-181.5001 5016.265,-174.5001"/>
</g>
<!-- IndicatorViewComponent -->
<g id="node36" class="node">
<title>IndicatorViewComponent</title>
<polygon fill="#ffffb3" stroke="#000000" points="5308.1825,-122 5145.8175,-122 5145.8175,-86 5308.1825,-86 5308.1825,-122"/>
<text text-anchor="middle" x="5227" y="-99.8" font-family="Times,serif" font-size="14.00" fill="#000000">IndicatorViewComponent</text>
</g>
<!-- IndicatorViewComponent&#45;&gt;ValuationModule -->
<g id="edge35" class="edge">
<title>IndicatorViewComponent&#45;&gt;ValuationModule</title>
<path fill="none" stroke="#000000" d="M5227,-122.2667C5227,-140.5552 5227,-166 5227,-166 5227,-166 5016.2647,-166 5016.2647,-166"/>
<polygon fill="#000000" stroke="#000000" points="5016.2647,-162.5001 5006.2647,-166 5016.2647,-169.5001 5016.2647,-162.5001"/>
</g>
<!-- ValuationRoutingModule -->
<g id="node38" class="node">
<title>ValuationRoutingModule</title>
<polygon fill="#8dd3c7" stroke="#000000" points="4752.8752,-122 4749.8752,-126 4728.8752,-126 4725.8752,-122 4593.1248,-122 4593.1248,-86 4752.8752,-86 4752.8752,-122"/>
<text text-anchor="middle" x="4673" y="-99.8" font-family="Times,serif" font-size="14.00" fill="#000000">ValuationRoutingModule</text>
</g>
<!-- ValuationRoutingModule&#45;&gt;ValuationModule -->
<g id="edge36" class="edge">
<title>ValuationRoutingModule&#45;&gt;ValuationModule</title>
<path fill="none" stroke="#000000" d="M4673,-122.2667C4673,-140.5552 4673,-166 4673,-166 4673,-166 4881.4773,-166 4881.4773,-166"/>
<polygon fill="#000000" stroke="#000000" points="4881.4773,-169.5001 4891.4773,-166 4881.4773,-162.5001 4881.4773,-169.5001"/>
</g>
</g>
</svg>
